PathFileType	4	(X/Y/Z)	TVC_20_BWA6_walk_RCNL2025.trc
DataRate	CameraRate	NumFrames	NumMarkers	Units	OrigDataRate	OrigDataStartFrame	OrigNumFrames
100	100	7	27	mm	100	60	238
Frame#	Time	R_Shoulder			L_Shoulder			C7			J_Notch			R_Elbow			L_Elbow			R_Wrist			L_Wrist			R_Asis			L_Asis			R_Psis			L_Psis			Sacral			Thoracic			Sternum			R_Thigh_Lateral			R_Knee_Lateral			R_Shank_Lateral			R_Ankle_Lateral			R_Heel			R_Toe			L_Thigh_Lateral			L_Knee_Lateral			L_Shank_Lateral			L_Ankle_Lateral			L_Heel			L_Toe		
		X1	Y1	Z1	X2	Y2	Z2	X3	Y3	Z3	X4	Y4	Z4	X5	Y5	Z5	X6	Y6	Z6	X7	Y7	Z7	X8	Y8	Z8	X9	Y9	Z9	X10	Y10	Z10	X11	Y11	Z11	X12	Y12	Z12	X13	Y13	Z13	X14	Y14	Z14	X15	Y15	Z15	X16	Y16	Z16	X17	Y17	Z17	X18	Y18	Z18	X19	Y19	Z19	X20	Y20	Z20	X21	Y21	Z21	X22	Y22	Z22	X23	Y23	Z23	X24	Y24	Z24	X25	Y25	Z25	X26	Y26	Z26	X27	Y27	Z27
60	0.59000000	-499.422882	1357.519043	67.651642	-554.646667	1401.856323	-290.583893	-552.537292	1431.148315	-94.295296	-433.364716	1302.099365	-120.483849	-583.083801	1057.212769	166.093002	-592.809875	1103.465698	-420.381378	-428.933105	845.081177	158.018707	-390.083786	937.668488	-413.296219	-463.108459	974.035156	-0.965422	-496.596527	982.778992	-276.252960	-625.684326	975.620850	-73.185020	-649.570740	970.327026	-160.010056	-637.627533	972.973938	-116.597538	-661.340637	1205.464111	-111.615540	-418.371307	1161.322144	-142.831024	-390.280243	666.109375	62.381351	-312.103760	483.908630	-20.233753	-328.576263	298.371002	27.260050	-338.582947	72.582893	-62.292225	-385.981201	52.805485	-112.561607	-191.285599	34.385460	-81.271774	-602.865295	623.033142	-348.128784	-610.113220	449.886902	-281.381226	-751.621033	326.242188	-324.647217	-931.313354	172.791245	-235.034836	-966.402771	207.519012	-196.994324	-879.911438	45.649658	-187.337891
61	0.60000000	-483.641296	1358.727905	68.959259	-540.257141	1404.002441	-288.996674	-537.333130	1432.979492	-92.450470	-418.335571	1303.972778	-119.376900	-565.840027	1057.820679	166.780838	-582.351746	1105.655640	-417.996857	-411.228210	846.049866	157.606422	-381.888794	936.991455	-413.375656	-448.729248	976.389465	0.283848	-481.851074	983.927856	-274.937805	-611.189697	977.881836	-72.443741	-634.973572	971.475708	-159.468216	-623.081635	974.678772	-115.955978	-646.433716	1207.429688	-110.478203	-403.501312	1163.162842	-141.996857	-379.372375	666.013977	63.307568	-302.883972	483.387482	-19.850769	-322.611877	297.939880	27.416668	-337.841278	72.830383	-62.612152	-385.639221	53.044113	-112.634163	-190.792023	34.433868	-81.869949	-578.411316	620.872253	-348.316040	-582.474304	448.292358	-282.438324	-725.985046	327.345184	-325.539276	-911.941284	182.466034	-236.959076	-945.414917	219.051407	-198.856369	-869.405212	51.183491	-188.849915
62	0.61000000	-467.970093	1360.144165	70.150436	-525.974670	1406.205688	-287.535828	-522.233215	1434.958252	-90.753700	-403.458221	1305.931396	-118.378510	-548.658264	1058.691040	167.503906	-571.852417	1107.901489	-415.732025	-393.428314	847.432861	157.117378	-373.888641	936.210358	-413.454300	-434.633545	978.749878	1.583845	-467.350159	985.214050	-273.632965	-596.950317	980.259766	-71.664040	-620.616272	972.789551	-158.860962	-608.783295	976.524658	-115.262501	-631.693481	1209.571655	-109.350647	-388.877380	1165.055664	-141.226883	-369.750641	665.453552	64.269035	-294.767090	482.658417	-19.395931	-318.101135	297.336853	27.622114	-337.329590	73.005020	-62.878723	-385.422089	53.176987	-112.733376	-190.521042	34.594326	-82.285370	-553.816650	619.111877	-348.220276	-554.190735	447.177185	-283.200806	-699.148560	328.666138	-326.274231	-890.998413	191.867599	-238.757492	-923.102539	229.824677	-200.547562	-855.719543	57.668163	-190.792404
63	0.62000000	-452.432281	1361.755737	71.228416	-511.805939	1408.444092	-286.204437	-507.250488	1437.064331	-89.209663	-388.742096	1307.958252	-117.485641	-531.574890	1059.812988	168.264282	-561.288757	1110.182983	-413.596497	-375.576691	849.221375	156.558395	-366.051346	935.331268	-413.526550	-420.818604	981.098938	2.930495	-453.079193	986.637085	-272.339478	-582.963867	982.732056	-70.851364	-606.487671	974.272095	-158.198273	-594.725769	978.502075	-114.524818	-617.125427	1211.864014	-108.233810	-374.498810	1166.989746	-140.514130	-361.043060	664.741760	65.259201	-287.667908	481.797577	-18.849182	-314.766937	296.677979	27.965805	-337.006378	73.110870	-63.055233	-385.301300	53.248306	-112.818703	-190.419464	34.749035	-82.524590	-529.459473	618.066223	-347.830231	-525.481812	446.670135	-283.676971	-671.369141	330.328003	-326.849243	-868.532715	200.669495	-240.366486	-899.606262	239.514343	-202.038498	-838.616272	64.639175	-193.104858
64	0.63000000	-437.047272	1363.548706	72.199219	-497.751221	1410.697510	-285.002472	-492.394012	1439.276489	-87.819534	-374.191589	1310.037354	-116.691086	-514.623596	1061.172852	169.062698	-550.643616	1112.482910	-411.593231	-357.716110	851.400543	155.937317	-358.351196	934.361237	-413.587952	-407.278717	983.426758	4.323824	-439.013885	988.197266	-271.052490	-569.222473	985.276672	-70.013504	-592.570618	975.923767	-157.495697	-580.896545	980.600220	-113.754601	-602.730652	1214.279541	-107.129402	-360.357269	1168.956787	-139.846756	-352.826538	664.189148	66.279732	-281.488586	480.880280	-18.205109	-312.294220	296.058319	28.495382	-336.829987	73.161629	-63.120129	-385.247711	53.297882	-112.860573	-190.436264	34.832954	-82.607330	-505.605499	617.940247	-347.198761	-496.554718	446.872528	-283.889862	-642.914490	332.424286	-327.273773	-844.570374	208.531433	-241.730606	-875.034912	247.815811	-203.314056	-818.034180	71.552017	-195.693542
65	0.64000000	-421.830597	1365.506958	73.071205	-483.804688	1412.946899	-283.926880	-477.668793	1441.572021	-86.581276	-359.806244	1312.153076	-115.984077	-497.834381	1062.752930	169.898849	-539.905334	1114.786499	-409.719208	-339.887573	853.949097	155.262756	-350.768188	933.307495	-413.634872	-394.005005	985.728149	5.766902	-425.123352	989.893738	-269.762451	-555.713562	987.871155	-69.159332	-578.843872	977.740051	-156.771851	-567.278717	982.805603	-112.965591	-588.506226	1216.789795	-106.039764	-346.437775	1170.949707	-139.208969	-344.730530	664.018677	67.331062	-276.126160	479.971039	-17.475761	-310.381165	295.540527	29.209982	-336.760559	73.175255	-63.069588	-385.235046	53.356403	-112.843361	-190.525314	34.827702	-82.561646	-482.352783	618.781555	-346.410614	-467.597443	447.849396	-283.868347	-614.037231	334.994141	-327.564514	-819.137756	215.127060	-242.814651	-849.465942	254.463898	-204.374893	-794.074951	77.865784	-198.439255
66	0.65000000	-406.793762	1367.610596	73.854599	-469.955200	1415.173706	-282.972168	-463.076447	1443.927002	-85.490013	-345.581299	1314.289185	-115.351021	-481.233276	1064.531494	170.771576	-529.067078	1117.080078	-407.966858	-322.129395	856.839752	154.543709	-343.287140	932.176727	-413.664261	-380.984894	987.999573	7.263947	-411.373566	991.722595	-268.457092	-542.420410	990.492493	-68.297829	-565.284180	979.709900	-156.045746	-553.852295	985.101196	-112.171787	-574.445862	1219.365112	-104.967751	-332.720093	1172.960693	-138.582016	-336.524261	664.312805	68.404686	-271.477478	479.118347	-16.689922	-308.777191	295.152954	30.065752	-336.762268	73.169853	-62.916737	-385.242401	53.443619	-112.765778	-190.648178	34.748669	-82.419296	-459.644867	620.495483	-345.539246	-438.773468	449.624359	-283.638977	-584.952820	338.007416	-327.738068	-792.284424	220.175674	-243.611115	-822.953064	259.248779	-205.233810	-766.955811	83.120071	-201.210220
